<?xml version="1.0" encoding="iso-8859-1"?>
<!-- Generator: Adobe Illustrator 19.0.0, SVG Export Plug-In . SVG Version: 6.00 Build 0)  -->
<svg xmlns="http://www.w3.org/2000/svg" xmlns:xlink="http://www.w3.org/1999/xlink" version="1.1" id="Capa_1" x="0px" y="0px" viewBox="0 0 511.999 511.999" style="enable-background:new 0 0 511.999 511.999;" xml:space="preserve" width="512px" height="512px">
<g>
	<g>
		<path d="M404.074,192.791c-3.91-3.91-10.241-3.91-14.151,0c-3.9,3.9-3.9,10.231,0,14.141c3.91,3.9,10.241,3.9,14.151,0    C407.974,203.022,407.974,196.691,404.074,192.791z" fill="#FFFFFF"/>
	</g>
</g>
<g>
	<g>
		<path d="M206.922,389.933c-3.9-3.91-10.231-3.91-14.141,0c-3.9,3.9-3.9,10.241,0,14.141c3.91,3.91,10.241,3.91,14.141,0    C210.832,400.173,210.832,393.833,206.922,389.933z" fill="#FFFFFF"/>
	</g>
</g>
<g>
	<g>
		<path d="M319.211,277.644c-11.724-11.724-30.7-11.726-42.426,0l-34.501,34.5l-42.429-42.428l34.509-34.51    c11.565-11.595,11.858-30.519-0.009-42.417c-11.697-11.695-30.729-11.696-42.425,0l-34.5,34.501l-7.07-7.07    c-11.7-11.728-30.722-11.747-42.435-0.008c-9.22,9.221-11.168,22.995-5.855,34.146l-22.426,22.426    C44.777,311.649,37.67,365.682,61.38,408.193L2.928,466.646c-3.904,3.905-3.904,10.238,0.001,14.143L31.21,509.07    c3.907,3.905,10.237,3.904,14.144,0l58.437-58.436c42.591,23.766,96.63,16.517,131.425-18.278l22.413-22.412    c10.971,5.253,24.76,3.506,34.16-5.869c11.696-11.697,11.696-30.729,0-42.424l-7.079-7.079l34.493-34.492    C330.951,308.353,330.927,289.333,319.211,277.644z M206.072,206.933c3.899-3.898,10.241-3.898,14.131-0.009    c3.94,3.948,3.902,10.246,0.009,14.147l-34.501,34.501l-14.139-14.139L206.072,206.933z M38.282,487.856l-14.139-14.139    l48.756-48.756c2.138,2.563,4.386,5.036,6.743,7.393c2.358,2.358,4.831,4.606,7.395,6.745L38.282,487.856z M221.072,418.212    c-34.562,34.561-91.732,35.56-127.285-0.001c-35.484-35.475-34.636-92.647,0-127.283l21.209-21.21l127.286,127.285    L221.072,418.212z M277.656,389.923c-3.929,3.919-10.245,3.923-14.158,0.01l-141.43-141.43c-3.901-3.9-3.901-10.248,0.008-14.156    c3.835-3.845,10.179-3.956,14.131,0.008l141.439,141.439C281.543,379.691,281.543,386.034,277.656,389.923z M305.066,305.927    l-34.501,34.5l-14.139-14.139l34.502-34.501c3.869-3.867,10.19-3.948,14.147,0.01C308.961,295.671,308.99,302.012,305.066,305.927    z" fill="#FFFFFF"/>
	</g>
</g>
<g>
	<g>
		<path d="M178.641,361.649l-56.573-56.573c-3.906-3.904-10.237-3.904-14.144,0c-3.905,3.905-3.905,10.238,0,14.144l56.574,56.573    c1.953,1.952,4.512,2.929,7.071,2.929s5.118-0.977,7.071-2.929C182.547,371.888,182.547,365.555,178.641,361.649z" fill="#FFFFFF"/>
	</g>
</g>
<g>
	<g>
		<path d="M509.07,31.21L480.789,2.928c-3.905-3.902-10.237-3.904-14.143,0l-58.467,58.458    c-42.495-23.711-96.527-16.61-131.394,18.255l-22.437,22.429c-11.149-5.309-24.921-3.36-34.148,5.863    c-11.711,11.743-11.72,30.692,0.01,42.425l141.429,141.428c11.689,11.689,30.723,11.696,42.426,0.009    c9.435-9.412,11.102-23.256,5.879-34.163l22.411-22.419c34.866-34.867,41.968-88.899,18.256-131.395l58.458-58.467    C512.975,41.447,512.975,35.116,509.07,31.21z M389.936,277.641c-3.907,3.901-10.256,3.901-14.153,0.004L234.356,136.218    c-3.905-3.905-3.916-10.224-0.001-14.149c3.896-3.898,10.242-3.899,14.139,0l141.438,141.438c0.003,0.003,0.006,0.006,0.009,0.009    C393.838,267.403,393.845,273.741,389.936,277.641z M418.212,221.072l-21.21,21.218L269.71,114.997l21.219-21.211    c34.57-34.571,91.751-35.533,127.284,0C453.752,129.324,452.779,186.505,418.212,221.072z M439.103,87.045    c-2.138-2.567-4.387-5.042-6.746-7.402c-2.359-2.359-4.835-4.608-7.402-6.746l48.762-48.754l14.141,14.141L439.103,87.045z" fill="#FFFFFF"/>
	</g>
</g>
<g>
	<g>
		<path d="M375.783,164.497l-56.572-56.572c-3.906-3.904-10.237-3.904-14.144,0c-3.905,3.905-3.905,10.238,0,14.144l56.572,56.572    c3.907,3.905,10.237,3.904,14.144,0C379.688,174.736,379.688,168.404,375.783,164.497z" fill="#FFFFFF"/>
	</g>
</g>
<g>
</g>
<g>
</g>
<g>
</g>
<g>
</g>
<g>
</g>
<g>
</g>
<g>
</g>
<g>
</g>
<g>
</g>
<g>
</g>
<g>
</g>
<g>
</g>
<g>
</g>
<g>
</g>
<g>
</g>
</svg>
